Coordinates
version=1
nRows=19
nColumns=34
inDegrees=yes

Units are S.I. units (second, meters, Newtons, ...)
If the header above contains a line with 'inDegrees', this indicates whether rotational values are in degrees (yes) or radians (no).

endheader
time	pelvis_tilt	pelvis_list	pelvis_rotation	pelvis_tx	pelvis_ty	pelvis_tz	hip_flexion_r	hip_adduction_r	hip_rotation_r	knee_angle_r	ankle_angle_r	subtalar_angle_r	mtp_angle_r	hip_flexion_l	hip_adduction_l	hip_rotation_l	knee_angle_l	ankle_angle_l	subtalar_angle_l	mtp_angle_l	lumbar_extension	lumbar_bending	lumbar_rotation	arm_flex_r	arm_add_r	arm_rot_r	elbow_flex_r	pro_sup_r	arm_flex_l	arm_add_l	arm_rot_l	elbow_flex_l	pro_sup_l
      2.96666670	     -7.78985009	      1.96297669	     -7.27840091	      1.69894061	      0.86718517	     -0.00596622	     12.72782058	     -5.11127812	     -4.39246341	      8.50324304	      7.19993352	    -10.77116880	      0.00000000	     17.71967488	     -5.64354103	     -2.50858596	     20.35148261	      5.43794002	     -9.04649618	      0.00000000	     -8.44946498	      2.93702649	     -2.45031596	     12.76861022	     -6.18411430	     36.78271438	     85.04411396	     88.22568015	      8.13376775	     -4.20721336	     24.32394924	     69.07588940	     79.78915613
      2.98333330	     -7.88105240	      2.01856241	     -7.42672990	      1.69880852	      0.86696610	     -0.00524777	     12.88463287	     -5.24270715	     -4.37168395	      8.48299382	      7.18957580	    -10.70800738	      0.00000000	     17.77220521	     -5.63207561	     -2.28277174	     20.19972064	      5.44757477	     -8.96065680	      0.00000000	     -8.66565769	      3.03098855	     -2.35819983	     12.76872352	     -6.15797037	     36.81190178	     84.97984733	     88.22300464	      8.11010985	     -4.34946022	     24.27345513	     68.95528778	     79.80037290
      3.00000000	     -7.97377920	      2.22256879	     -7.54832463	      1.69824256	      0.86527506	     -0.00454492	     13.27891925	     -5.57386670	     -4.60339993	      8.93913072	      7.83556874	     -9.48646119	      0.00000000	     17.56329423	     -5.39956876	     -1.95393257	     19.52550838	      5.32841252	     -8.85888503	      0.00000000	     -8.50109268	      2.84677660	     -2.34951167	     13.22939217	     -5.77629277	     37.43452106	     83.77248105	     88.14790472	      8.49720953	     -4.30335313	     24.13187011	     67.29792579	     80.19873084
      3.01666670	     -8.13165581	      2.20762017	     -7.64640765	      1.69748622	      0.86383737	     -0.00484643	     13.47796969	     -5.57748578	     -4.63840301	      8.88716035	      7.83357097	     -9.46309921	      0.00000000	     17.57817664	     -5.42502886	     -1.73559687	     19.24838398	      5.42424927	     -8.80928710	      0.00000000	     -8.69120624	      2.82955106	     -2.26693437	     13.32496151	     -5.61399457	     37.46621092	     83.77380686	     88.14341362	      8.56300361	     -4.38467045	     24.10867436	     67.24556467	     80.21176418
      3.03333330	     -8.20797955	      2.33458485	     -7.68779181	      1.69658088	      0.86204043	     -0.00587895	     13.82217108	     -5.79012448	     -4.65095403	      9.28331545	      8.01875652	     -9.28590333	      0.00000000	     17.40682147	     -5.19668086	     -1.36897119	     18.69476442	      5.70009853	     -8.70941495	      0.00000000	     -8.84721679	      2.65172527	     -2.36085464	     13.64042932	     -5.12199208	     37.63706755	     83.57994996	     88.10734078	      8.88294507	     -4.55650256	     24.20345118	     66.94066325	     80.31796325
      3.05000000	     -8.41494097	      2.26704325	     -7.68150135	      1.69537365	      0.86174092	     -0.00783419	     14.01697983	     -5.73742971	     -4.68332030	      9.14366637	      8.11272767	     -9.28759960	      0.00000000	     17.46314712	     -5.21930691	     -1.27190255	     18.29997662	      5.81034056	     -8.69313560	      0.00000000	     -8.97740967	      2.60657176	     -2.28908993	     13.85990971	     -4.90187897	     37.65527253	     83.57316189	     88.10038399	      9.14886464	     -4.61435951	     24.16648801	     66.92751039	     80.32867694
      3.06666670	     -8.62832609	      2.23977378	     -7.70800899	      1.69398346	      0.86227152	     -0.01133272	     14.29287723	     -5.77469297	     -4.64940435	      9.06382311	      8.19550750	     -9.25619519	      0.00000000	     17.51242283	     -5.13125673	     -1.11346367	     17.82490189	      5.94846540	     -8.63395150	      0.00000000	     -9.11760885	      2.61784139	     -2.29831263	     14.20756841	     -4.62938469	     37.64131985	     83.55334520	     88.08892372	      9.59360645	     -4.60516800	     24.14846740	     66.93141316	     80.34183388
      3.08333330	     -8.82457640	      2.23016560	     -7.63503079	      1.69305827	      0.86242294	     -0.01582329	     14.57569215	     -5.90485491	     -4.56710979	      9.05428600	      8.23887366	     -9.18870209	      0.00000000	     17.60851569	     -4.96022211	     -0.99630605	     17.37514643	      6.07065221	     -8.56576732	      0.00000000	     -9.31715749	      2.59968449	     -2.35771448	     14.66403390	     -4.38421034	     37.58057722	     83.49679297	     88.07306366	     10.07618257	     -4.54187901	     24.17069519	     66.92033952	     80.35646127
      3.10000000	     -8.65800154	      2.43472424	     -7.73919975	      1.69262644	      0.86250773	     -0.01996281	     14.75804048	     -6.38101537	     -4.65980725	      9.47595661	      8.79840901	     -8.56112727	      0.00000000	     17.27368916	     -4.49814896	     -1.00876714	     16.86762723	      6.12845941	     -8.16496148	      0.00000000	     -9.56878340	      2.21154678	     -2.64323181	     15.82243477	     -3.66016613	     37.84963559	     81.74938882	     87.86298178	     11.13616998	     -4.85715519	     25.39096738	     65.90380187	     80.59743250
      3.11666670	     -8.90095459	      2.39175206	     -7.71500296	      1.69330487	      0.86225532	     -0.02395752	     14.97869964	     -6.53038115	     -4.63955156	      9.29373540	      8.74284376	     -8.50227561	      0.00000000	     17.43980633	     -4.30422535	     -1.03482552	     16.55568987	      6.21979990	     -8.16890469	      0.00000000	     -9.75506639	      2.28506792	     -2.76914235	     16.15864464	     -3.59602722	     37.75242295	     81.75275254	     87.84613496	     11.60682123	     -4.72261618	     25.37057980	     65.98181426	     80.60135328
      3.13333330	     -9.11776451	      2.38895526	     -7.68222803	      1.69437772	      0.86200336	     -0.02788109	     15.20620002	     -6.76487789	     -4.62039736	      9.20759371	      8.59862386	     -8.39344442	      0.00000000	     17.58364556	     -4.03805148	     -0.97420333	     16.29378554	      6.28456306	     -8.11727058	      0.00000000	     -9.85011301	      2.27150048	     -2.86432049	     16.77726992	     -3.40199551	     37.57863653	     81.78971283	     87.82224640	     12.27066098	     -4.56665488	     25.34197289	     66.08732086	     80.60540022
      3.15000000	     -9.12261444	      2.50926175	     -7.65321022	      1.69553181	      0.86202886	     -0.03175690	     15.45440363	     -7.23569859	     -4.89385070	      9.58480199	      8.32089448	     -8.14006388	      0.00000000	     17.60055695	     -3.60592904	     -0.90341333	     16.23139811	      6.31603234	     -8.04175835	      0.00000000	    -10.33131950	      1.94967435	     -3.02420232	     17.51037696	     -3.04525678	     37.21494797	     81.40741338	     87.71085986	     13.11126935	     -4.60010738	     25.61936645	     65.97194727	     80.64004742
      3.16666670	     -9.33452503	      2.44610411	     -7.64437328	      1.69714491	      0.86172355	     -0.03529333	     15.56160536	     -7.40943491	     -4.85377083	      9.43937288	      8.26331604	     -8.02112253	      0.00000000	     17.63527635	     -3.42744869	     -0.89272836	     15.95669621	      6.38671685	     -8.03668841	      0.00000000	    -10.30448062	      1.96245231	     -3.08757069	     18.05436439	     -2.85876390	     37.01234786	     81.41333310	     87.68128583	     13.71388693	     -4.46366082	     25.62693454	     66.10369065	     80.64442079
      3.18333330	     -9.44922344	      2.47352360	     -7.74542769	      1.69673104	      0.86152360	     -0.03860654	     15.79947734	     -7.70714118	     -4.96165737	      9.56039264	      7.96117882	     -7.74232201	      0.00000000	     17.66422202	     -3.15287847	     -0.79778258	     15.84235518	      6.38771036	     -8.01592873	      0.00000000	    -10.63203168	      1.77185155	     -3.09586717	     18.88737735	     -2.50705553	     36.54475147	     81.21643322	     87.60544484	     14.61122988	     -4.43516570	     25.73794320	     66.24668516	     80.65649309
      3.20000000	     -9.27024805	      2.44115482	     -7.82455681	      1.69513762	      0.86152594	     -0.04191533	     15.63516537	     -7.98405598	     -5.27452406	      9.58125831	      8.10859956	     -7.28325612	      0.00000000	     17.28507915	     -2.90017094	     -0.84029675	     15.56475536	      6.35904592	     -8.32806555	      0.00000000	    -11.10293216	      1.59225515	     -2.97269282	     19.60415074	     -1.77720847	     35.26446733	     80.31199603	     87.32467370	     16.00731445	     -4.66035414	     26.68070930	     66.58851287	     80.71920329
      3.21666670	     -9.55722311	      2.40595728	     -7.86547540	      1.69313284	      0.86071384	     -0.04530193	     16.02420575	     -8.15772876	     -5.38624678	      9.55408369	      7.84095939	     -7.19177428	      0.00000000	     17.57187194	     -2.70793611	     -0.81406182	     15.48685181	      6.36164681	     -8.34695285	      0.00000000	    -11.29842461	      1.54717177	     -2.93232206	     20.56187727	     -1.48217559	     34.91479306	     80.35962047	     87.27677051	     17.26724987	     -4.54109435	     26.59580869	     66.86913274	     80.71324662
      3.23333330	     -9.64587620	      2.36758745	     -7.90733744	      1.69147101	      0.86081284	     -0.04857404	     16.38412577	     -8.35495859	     -5.56817110	      9.80744341	      7.70776312	     -7.20063252	      0.00000000	     17.77295835	     -2.48435114	     -0.73779546	     15.57583745	      6.34550373	     -8.73992321	      0.00000000	    -11.64539933	      1.42091714	     -2.64585603	     21.39690786	     -0.84732418	     33.66946024	     79.96968882	     87.02111542	     19.18828898	     -4.65668139	     27.90529120	     67.57741665	     80.77347631
      3.25000000	     -9.85788519	      2.31150905	     -7.93480242	      1.69019811	      0.86165321	     -0.05194953	     16.92982570	     -8.49359316	     -5.81087151	     10.10106255	      7.45016064	     -7.21362163	      0.00000000	     18.16466381	     -2.30233769	     -0.73029137	     15.72818178	      6.38156365	     -8.77752949	      0.00000000	    -11.92096997	      1.39078854	     -2.56111938	     22.51906354	     -0.34842173	     33.34571178	     80.05036049	     86.98264703	     20.91709880	     -4.27151673	     27.88172648	     68.03466347	     80.76585085
      3.26666670	    -10.06078289	      2.24332722	     -7.95138207	      1.68869670	      0.86224961	     -0.05563964	     17.55712797	     -8.62289426	     -6.00616817	     10.50141844	      7.19917481	     -7.16154310	      0.00000000	     18.61720728	     -2.14340784	     -0.65002471	     15.94993847	      6.39487799	     -8.78853771	      0.00000000	    -12.18842593	      1.38198903	     -2.50214597	     23.75925194	      0.32842646	     32.92927774	     80.14290535	     86.94814455	     22.88496586	     -3.78351143	     27.98579897	     68.73853322	     80.77798276
